<svg xmlns="http://www.w3.org/2000/svg" width="565.1" height="89.6" viewBox="0 0 565.1 89.6">
  <g id="atlas-main-2019" transform="translate(-14.7 -20.301)">
    <g id="Group_343" data-name="Group 343">
      <path id="Path_975" data-name="Path 975" d="M417.6,40.7a4.6,4.6,0,1,0,4.6-4.6A4.525,4.525,0,0,0,417.6,40.7Zm.5,0a4.1,4.1,0,1,1,4.1,4.1A4.185,4.185,0,0,1,418.1,40.7Z" fill="#fff"/>
      <path id="Path_976" data-name="Path 976" d="M420.9,38.6h1.7a2,2,0,0,1,.9.2.864.864,0,0,1,.3.6.9.9,0,0,1-.1.5c-.1.1-.2.3-.4.3a1.719,1.719,0,0,1-.8.1H421V38.6h-.1Zm0,4.7V41h1.2c.1,0,.2.1.3.1l.4.4c.1.2.3.4.5.7l.7,1.1h.9l-.9-1.5a4.349,4.349,0,0,0-.6-.7,1.381,1.381,0,0,0-.4-.3,1.626,1.626,0,0,0,1.1-.5,1.777,1.777,0,0,0,.4-1,1.884,1.884,0,0,0-.2-.8,1.024,1.024,0,0,0-.6-.5,3.11,3.11,0,0,0-1.1-.1h-2.4v5.4Z" fill="#fff"/>
    </g>
    <g id="Group_345" data-name="Group 345">
      <g id="Group_344" data-name="Group 344">
        <path id="Path_977" data-name="Path 977" d="M104.3,65.1A44.8,44.8,0,1,1,59.5,20.3,44.79,44.79,0,0,1,104.3,65.1Z" fill="#0069b5"/>
        <path id="Path_978" data-name="Path 978" d="M104.1,65.1A44.6,44.6,0,1,1,59.5,20.5,44.641,44.641,0,0,1,104.1,65.1Z" fill="#0069b5"/>
        <path id="Path_979" data-name="Path 979" d="M103.9,65.1A44.4,44.4,0,1,1,59.5,20.7,44.427,44.427,0,0,1,103.9,65.1Z" fill="#006ab5"/>
        <path id="Path_980" data-name="Path 980" d="M103.7,65.1A44.2,44.2,0,1,1,59.5,20.9,44.214,44.214,0,0,1,103.7,65.1Z" fill="#006ab6"/>
        <path id="Path_981" data-name="Path 981" d="M103.6,65.1A44.05,44.05,0,1,1,59.6,21,44.086,44.086,0,0,1,103.6,65.1Z" fill="#006bb6"/>
        <path id="Path_982" data-name="Path 982" d="M103.4,65.1A43.9,43.9,0,1,1,59.5,21.2,43.894,43.894,0,0,1,103.4,65.1Z" fill="#006bb6"/>
        <path id="Path_983" data-name="Path 983" d="M103.2,65.1A43.7,43.7,0,1,1,59.5,21.4,43.745,43.745,0,0,1,103.2,65.1Z" fill="#006bb7"/>
        <path id="Path_984" data-name="Path 984" d="M103,65.1A43.5,43.5,0,1,1,59.5,21.6,43.531,43.531,0,0,1,103,65.1Z" fill="#006cb7"/>
        <path id="Path_985" data-name="Path 985" d="M102.8,65.1A43.3,43.3,0,1,1,59.5,21.8,43.318,43.318,0,0,1,102.8,65.1Z" fill="#006cb7"/>
        <path id="Path_986" data-name="Path 986" d="M102.6,65.1A43.1,43.1,0,1,1,59.5,22,43.1,43.1,0,0,1,102.6,65.1Z" fill="#006db8"/>
        <path id="Path_987" data-name="Path 987" d="M102.5,65.1A42.95,42.95,0,1,1,59.6,22.2,42.891,42.891,0,0,1,102.5,65.1Z" fill="#006db8"/>
        <path id="Path_988" data-name="Path 988" d="M102.3,65.1A42.8,42.8,0,1,1,59.5,22.3,42.784,42.784,0,0,1,102.3,65.1Z" fill="#006eb8"/>
        <path id="Path_989" data-name="Path 989" d="M102.1,65.1A42.6,42.6,0,1,1,59.5,22.5,42.635,42.635,0,0,1,102.1,65.1Z" fill="#006eb9"/>
        <path id="Path_990" data-name="Path 990" d="M101.9,65.1A42.4,42.4,0,1,1,59.5,22.7,42.422,42.422,0,0,1,101.9,65.1Z" fill="#006fb9"/>
        <path id="Path_991" data-name="Path 991" d="M101.7,65.1A42.2,42.2,0,1,1,59.5,22.9,42.208,42.208,0,0,1,101.7,65.1Z" fill="#006fba"/>
        <path id="Path_992" data-name="Path 992" d="M101.5,65.1a42,42,0,1,1-42-42A41.995,41.995,0,0,1,101.5,65.1Z" fill="#0070ba"/>
        <path id="Path_993" data-name="Path 993" d="M101.4,65.1A41.8,41.8,0,1,1,59.6,23.3,41.781,41.781,0,0,1,101.4,65.1Z" fill="#0070ba"/>
        <path id="Path_994" data-name="Path 994" d="M101.2,65.1A41.65,41.65,0,1,1,59.6,23.4,41.653,41.653,0,0,1,101.2,65.1Z" fill="#0071bb"/>
        <path id="Path_995" data-name="Path 995" d="M101,65.1A41.5,41.5,0,1,1,59.5,23.6,41.525,41.525,0,0,1,101,65.1Z" fill="#0071bb"/>
        <path id="Path_996" data-name="Path 996" d="M100.8,65.1A41.3,41.3,0,1,1,59.5,23.8,41.312,41.312,0,0,1,100.8,65.1Z" fill="#0072bb"/>
        <path id="Path_997" data-name="Path 997" d="M100.6,65.1A41.1,41.1,0,1,1,59.5,24,41.1,41.1,0,0,1,100.6,65.1Z" fill="#0072bc"/>
        <path id="Path_998" data-name="Path 998" d="M100.4,65.1A40.9,40.9,0,1,1,59.5,24.2,40.885,40.885,0,0,1,100.4,65.1Z" fill="#0073bc"/>
        <path id="Path_999" data-name="Path 999" d="M100.3,65.1A40.7,40.7,0,1,1,59.6,24.4,40.672,40.672,0,0,1,100.3,65.1Z" fill="#0073bc"/>
        <path id="Path_1000" data-name="Path 1000" d="M100.1,65.1A40.55,40.55,0,1,1,59.6,24.5,40.608,40.608,0,0,1,100.1,65.1Z" fill="#0074bd"/>
        <path id="Path_1001" data-name="Path 1001" d="M99.9,65.1A40.4,40.4,0,1,1,59.5,24.7,40.416,40.416,0,0,1,99.9,65.1Z" fill="#0074bd"/>
        <path id="Path_1002" data-name="Path 1002" d="M99.7,65.1A40.2,40.2,0,1,1,59.5,24.9,40.2,40.2,0,0,1,99.7,65.1Z" fill="#0075bd"/>
        <path id="Path_1003" data-name="Path 1003" d="M99.5,65.1a40,40,0,1,1-40-40A39.989,39.989,0,0,1,99.5,65.1Z" fill="#0075be"/>
        <path id="Path_1004" data-name="Path 1004" d="M99.3,65.1A39.8,39.8,0,1,1,59.5,25.3,39.776,39.776,0,0,1,99.3,65.1Z" fill="#0076be"/>
        <path id="Path_1005" data-name="Path 1005" d="M99.2,65.1A39.6,39.6,0,1,1,59.6,25.5,39.562,39.562,0,0,1,99.2,65.1Z" fill="#0076bf"/>
        <path id="Path_1006" data-name="Path 1006" d="M99,65.1A39.45,39.45,0,1,1,59.6,25.6,39.5,39.5,0,0,1,99,65.1Z" fill="#0077bf"/>
        <path id="Path_1007" data-name="Path 1007" d="M98.8,65.1A39.3,39.3,0,1,1,59.5,25.8,39.306,39.306,0,0,1,98.8,65.1Z" fill="#0077bf"/>
        <path id="Path_1008" data-name="Path 1008" d="M98.6,65.1A39.1,39.1,0,1,1,59.5,26,39.093,39.093,0,0,1,98.6,65.1Z" fill="#0078c0"/>
        <path id="Path_1009" data-name="Path 1009" d="M98.4,65.1A38.9,38.9,0,1,1,59.5,26.2,38.879,38.879,0,0,1,98.4,65.1Z" fill="#0078c0"/>
        <path id="Path_1010" data-name="Path 1010" d="M98.2,65.1A38.7,38.7,0,1,1,59.5,26.4,38.666,38.666,0,0,1,98.2,65.1Z" fill="#0079c1"/>
        <path id="Path_1011" data-name="Path 1011" d="M98,65.1A38.5,38.5,0,1,1,59.5,26.6,38.453,38.453,0,0,1,98,65.1Z" fill="#007ac1"/>
        <path id="Path_1012" data-name="Path 1012" d="M97.9,65.1A38.35,38.35,0,1,1,59.6,26.8,38.3,38.3,0,0,1,97.9,65.1Z" fill="#007ac1"/>
        <path id="Path_1013" data-name="Path 1013" d="M97.7,65.1A38.2,38.2,0,1,1,59.5,26.9,38.2,38.2,0,0,1,97.7,65.1Z" fill="#007bc2"/>
        <path id="Path_1014" data-name="Path 1014" d="M97.5,65.1a38,38,0,1,1-38-38A37.983,37.983,0,0,1,97.5,65.1Z" fill="#007bc2"/>
        <path id="Path_1015" data-name="Path 1015" d="M97.3,65.1A37.8,37.8,0,1,1,59.5,27.3,37.77,37.77,0,0,1,97.3,65.1Z" fill="#007cc2"/>
        <path id="Path_1016" data-name="Path 1016" d="M97.1,65.1A37.6,37.6,0,1,1,59.5,27.5,37.556,37.556,0,0,1,97.1,65.1Z" fill="#007cc3"/>
        <path id="Path_1017" data-name="Path 1017" d="M96.9,65.1A37.4,37.4,0,1,1,59.5,27.7,37.407,37.407,0,0,1,96.9,65.1Z" fill="#007dc3"/>
        <path id="Path_1018" data-name="Path 1018" d="M96.8,65.1A37.25,37.25,0,1,1,59.6,27.9,37.194,37.194,0,0,1,96.8,65.1Z" fill="#007dc4"/>
        <path id="Path_1019" data-name="Path 1019" d="M96.6,65.1A37.1,37.1,0,1,1,59.5,28,37.087,37.087,0,0,1,96.6,65.1Z" fill="#007ec4"/>
        <path id="Path_1020" data-name="Path 1020" d="M96.4,65.1A36.9,36.9,0,1,1,59.5,28.2,36.874,36.874,0,0,1,96.4,65.1Z" fill="#007ec4"/>
        <path id="Path_1021" data-name="Path 1021" d="M96.2,65.1A36.7,36.7,0,1,1,59.5,28.4,36.66,36.66,0,0,1,96.2,65.1Z" fill="#007fc5"/>
        <path id="Path_1022" data-name="Path 1022" d="M96,65.1A36.5,36.5,0,1,1,59.5,28.6,36.447,36.447,0,0,1,96,65.1Z" fill="#007fc5"/>
        <path id="Path_1023" data-name="Path 1023" d="M95.8,65.1A36.3,36.3,0,1,1,59.5,28.8,36.3,36.3,0,0,1,95.8,65.1Z" fill="#0080c6"/>
        <path id="Path_1024" data-name="Path 1024" d="M95.7,65.1A36.1,36.1,0,1,1,59.6,29,36.084,36.084,0,0,1,95.7,65.1Z" fill="#0080c6"/>
        <path id="Path_1025" data-name="Path 1025" d="M95.5,65.1a35.95,35.95,0,1,1-35.9-36A35.956,35.956,0,0,1,95.5,65.1Z" fill="#0081c6"/>
        <path id="Path_1026" data-name="Path 1026" d="M95.3,65.1A35.8,35.8,0,1,1,59.5,29.3,35.764,35.764,0,0,1,95.3,65.1Z" fill="#0082c7"/>
        <path id="Path_1027" data-name="Path 1027" d="M95.1,65.1A35.6,35.6,0,1,1,59.5,29.5,35.551,35.551,0,0,1,95.1,65.1Z" fill="#0082c7"/>
        <path id="Path_1028" data-name="Path 1028" d="M94.9,65.1A35.4,35.4,0,1,1,59.5,29.7,35.337,35.337,0,0,1,94.9,65.1Z" fill="#0083c8"/>
        <path id="Path_1029" data-name="Path 1029" d="M94.7,65.1A35.2,35.2,0,1,1,59.5,29.9,35.252,35.252,0,0,1,94.7,65.1Z" fill="#0083c8"/>
        <path id="Path_1030" data-name="Path 1030" d="M94.6,65.1a35,35,0,1,1-35-35A35.038,35.038,0,0,1,94.6,65.1Z" fill="#0084c8"/>
        <path id="Path_1031" data-name="Path 1031" d="M94.4,65.1A34.85,34.85,0,1,1,59.6,30.2,34.911,34.911,0,0,1,94.4,65.1Z" fill="#0084c9"/>
        <path id="Path_1032" data-name="Path 1032" d="M94.2,65.1A34.7,34.7,0,1,1,59.5,30.4,34.718,34.718,0,0,1,94.2,65.1Z" fill="#0085c9"/>
        <path id="Path_1033" data-name="Path 1033" d="M94,65.1A34.5,34.5,0,1,1,59.5,30.6,34.5,34.5,0,0,1,94,65.1Z" fill="#0085ca"/>
        <path id="Path_1034" data-name="Path 1034" d="M93.8,65.1A34.3,34.3,0,1,1,59.5,30.8,34.356,34.356,0,0,1,93.8,65.1Z" fill="#0086ca"/>
        <path id="Path_1035" data-name="Path 1035" d="M93.6,65.1A34.1,34.1,0,1,1,59.5,31,34.142,34.142,0,0,1,93.6,65.1Z" fill="#0087ca"/>
        <path id="Path_1036" data-name="Path 1036" d="M93.4,65.1A33.9,33.9,0,1,1,59.5,31.2,33.865,33.865,0,0,1,93.4,65.1Z" fill="#0087cb"/>
        <path id="Path_1037" data-name="Path 1037" d="M93.3,65.1A33.75,33.75,0,1,1,59.6,31.3,33.8,33.8,0,0,1,93.3,65.1Z" fill="#0088cb"/>
        <path id="Path_1038" data-name="Path 1038" d="M93.1,65.1A33.55,33.55,0,1,1,59.6,31.5,33.609,33.609,0,0,1,93.1,65.1Z" fill="#08c"/>
        <path id="Path_1039" data-name="Path 1039" d="M92.9,65.1A33.4,33.4,0,1,1,59.5,31.7,33.4,33.4,0,0,1,92.9,65.1Z" fill="#0089cc"/>
        <path id="Path_1040" data-name="Path 1040" d="M92.7,65.1A33.2,33.2,0,1,1,59.5,31.9,33.246,33.246,0,0,1,92.7,65.1Z" fill="#0089cd"/>
        <path id="Path_1041" data-name="Path 1041" d="M92.5,65.1a33,33,0,1,1-33-33A33.033,33.033,0,0,1,92.5,65.1Z" fill="#008acd"/>
        <path id="Path_1042" data-name="Path 1042" d="M92.3,65.1A32.8,32.8,0,1,1,59.5,32.3,32.819,32.819,0,0,1,92.3,65.1Z" fill="#008acd"/>
        <path id="Path_1043" data-name="Path 1043" d="M92.2,65.1A32.65,32.65,0,1,1,59.6,32.5,32.606,32.606,0,0,1,92.2,65.1Z" fill="#008bce"/>
        <path id="Path_1044" data-name="Path 1044" d="M92,65.1A32.5,32.5,0,1,1,59.5,32.6,32.563,32.563,0,0,1,92,65.1Z" fill="#008cce"/>
        <path id="Path_1045" data-name="Path 1045" d="M91.8,65.1A32.3,32.3,0,1,1,59.5,32.8,32.286,32.286,0,0,1,91.8,65.1Z" fill="#008ccf"/>
        <path id="Path_1046" data-name="Path 1046" d="M91.6,65.1A32.1,32.1,0,1,1,59.5,33,32.136,32.136,0,0,1,91.6,65.1Z" fill="#008dcf"/>
        <path id="Path_1047" data-name="Path 1047" d="M91.4,65.1A31.9,31.9,0,1,1,59.5,33.2,31.923,31.923,0,0,1,91.4,65.1Z" fill="#008dcf"/>
        <path id="Path_1048" data-name="Path 1048" d="M91.2,65.1A31.7,31.7,0,1,1,59.5,33.4,31.71,31.71,0,0,1,91.2,65.1Z" fill="#008ed0"/>
        <path id="Path_1049" data-name="Path 1049" d="M91.1,65.1A31.55,31.55,0,1,1,59.5,33.6,31.5,31.5,0,0,1,91.1,65.1Z" fill="#008ed0"/>
        <path id="Path_1050" data-name="Path 1050" d="M90.9,65.1A31.35,31.35,0,1,1,59.6,33.7,31.368,31.368,0,0,1,90.9,65.1Z" fill="#008fd1"/>
        <path id="Path_1051" data-name="Path 1051" d="M90.7,65.1A31.2,31.2,0,1,1,59.5,33.9,31.24,31.24,0,0,1,90.7,65.1Z" fill="#0090d1"/>
        <path id="Path_1052" data-name="Path 1052" d="M90.5,65.1a31,31,0,1,1-31-31A31.027,31.027,0,0,1,90.5,65.1Z" fill="#0090d2"/>
        <path id="Path_1053" data-name="Path 1053" d="M90.3,65.1A30.8,30.8,0,1,1,59.5,34.3,30.813,30.813,0,0,1,90.3,65.1Z" fill="#0091d2"/>
        <path id="Path_1054" data-name="Path 1054" d="M90.1,65.1A30.6,30.6,0,1,1,59.5,34.5,30.6,30.6,0,0,1,90.1,65.1Z" fill="#0091d2"/>
        <path id="Path_1055" data-name="Path 1055" d="M90,65.1A30.4,30.4,0,1,1,59.6,34.7,30.387,30.387,0,0,1,90,65.1Z" fill="#0092d3"/>
        <path id="Path_1056" data-name="Path 1056" d="M89.8,65.1A30.25,30.25,0,1,1,59.6,34.8,30.259,30.259,0,0,1,89.8,65.1Z" fill="#0093d3"/>
        <path id="Path_1057" data-name="Path 1057" d="M89.6,65.1A30.1,30.1,0,1,1,59.5,35,30.13,30.13,0,0,1,89.6,65.1Z" fill="#0093d4"/>
        <path id="Path_1058" data-name="Path 1058" d="M89.4,65.1A29.9,29.9,0,1,1,59.5,35.2,29.917,29.917,0,0,1,89.4,65.1Z" fill="#0094d4"/>
        <path id="Path_1059" data-name="Path 1059" d="M89.2,65.1A29.7,29.7,0,1,1,59.5,35.4,29.7,29.7,0,0,1,89.2,65.1Z" fill="#0094d5"/>
        <path id="Path_1060" data-name="Path 1060" d="M89,65.1A29.5,29.5,0,1,1,59.5,35.6,29.49,29.49,0,0,1,89,65.1Z" fill="#0095d5"/>
        <path id="Path_1061" data-name="Path 1061" d="M88.9,65.1A29.3,29.3,0,1,1,59.6,35.8,29.277,29.277,0,0,1,88.9,65.1Z" fill="#0096d5"/>
        <path id="Path_1062" data-name="Path 1062" d="M88.7,65.1A29.15,29.15,0,1,1,59.5,36,29.213,29.213,0,0,1,88.7,65.1Z" fill="#0096d6"/>
        <path id="Path_1063" data-name="Path 1063" d="M88.5,65.1a29,29,0,1,1-29-29A29.021,29.021,0,0,1,88.5,65.1Z" fill="#0097d6"/>
        <path id="Path_1064" data-name="Path 1064" d="M88.3,65.1A28.8,28.8,0,1,1,59.5,36.3,28.807,28.807,0,0,1,88.3,65.1Z" fill="#0097d7"/>
        <path id="Path_1065" data-name="Path 1065" d="M88.1,65.1A28.6,28.6,0,1,1,59.5,36.5,28.594,28.594,0,0,1,88.1,65.1Z" fill="#0098d7"/>
        <path id="Path_1066" data-name="Path 1066" d="M87.9,65.1A28.4,28.4,0,1,1,59.5,36.7,28.381,28.381,0,0,1,87.9,65.1Z" fill="#0099d8"/>
        <path id="Path_1067" data-name="Path 1067" d="M87.7,65.1A28.2,28.2,0,1,1,59.5,36.9,28.167,28.167,0,0,1,87.7,65.1Z" fill="#0099d8"/>
        <path id="Path_1068" data-name="Path 1068" d="M87.6,65.1a28.05,28.05,0,1,1-28-28A28.018,28.018,0,0,1,87.6,65.1Z" fill="#009ad8"/>
        <path id="Path_1069" data-name="Path 1069" d="M87.4,65.1A27.9,27.9,0,1,1,59.5,37.2,27.911,27.911,0,0,1,87.4,65.1Z" fill="#009ad9"/>
        <path id="Path_1070" data-name="Path 1070" d="M87.2,65.1A27.7,27.7,0,1,1,59.5,37.4,27.7,27.7,0,0,1,87.2,65.1Z" fill="#009bd9"/>
        <path id="Path_1071" data-name="Path 1071" d="M87,65.1A27.5,27.5,0,1,1,59.5,37.6,27.484,27.484,0,0,1,87,65.1Z" fill="#009cda"/>
        <path id="Path_1072" data-name="Path 1072" d="M86.8,65.1A27.3,27.3,0,1,1,59.5,37.8,27.271,27.271,0,0,1,86.8,65.1Z" fill="#009cda"/>
        <path id="Path_1073" data-name="Path 1073" d="M86.6,65.1A27.1,27.1,0,1,1,59.5,38,27.058,27.058,0,0,1,86.6,65.1Z" fill="#009ddb"/>
        <path id="Path_1074" data-name="Path 1074" d="M86.5,65.1A26.95,26.95,0,1,1,59.6,38.2,26.908,26.908,0,0,1,86.5,65.1Z" fill="#009ddb"/>
        <path id="Path_1075" data-name="Path 1075" d="M86.3,65.1A26.8,26.8,0,1,1,59.5,38.3,26.8,26.8,0,0,1,86.3,65.1Z" fill="#009edb"/>
        <path id="Path_1076" data-name="Path 1076" d="M86.1,65.1A26.6,26.6,0,1,1,59.5,38.5,26.588,26.588,0,0,1,86.1,65.1Z" fill="#009fdc"/>
        <path id="Path_1077" data-name="Path 1077" d="M85.9,65.1A26.4,26.4,0,1,1,59.5,38.7,26.375,26.375,0,0,1,85.9,65.1Z" fill="#009fdc"/>
        <path id="Path_1078" data-name="Path 1078" d="M85.7,65.1A26.2,26.2,0,1,1,59.5,38.9,26.162,26.162,0,0,1,85.7,65.1Z" fill="#00a0dd"/>
        <path id="Path_1079" data-name="Path 1079" d="M85.5,65.1a26,26,0,1,1-26-26A26.012,26.012,0,0,1,85.5,65.1Z" fill="#00a0dd"/>
        <path id="Path_1080" data-name="Path 1080" d="M85.4,65.1A25.85,25.85,0,1,1,59.5,39.4,25.905,25.905,0,0,1,85.4,65.1Z" fill="#00a1de"/>
        <path id="Path_1081" data-name="Path 1081" d="M85.2,65.1A25.65,25.65,0,1,1,59.6,39.4,25.671,25.671,0,0,1,85.2,65.1Z" fill="#00a2de"/>
        <path id="Path_1082" data-name="Path 1082" d="M85,65.1A25.5,25.5,0,1,1,59.5,39.6,25.479,25.479,0,0,1,85,65.1Z" fill="#00a2de"/>
        <path id="Path_1083" data-name="Path 1083" d="M84.8,65.1A25.3,25.3,0,1,1,59.5,39.8,25.265,25.265,0,0,1,84.8,65.1Z" fill="#00a3df"/>
        <path id="Path_1084" data-name="Path 1084" d="M84.6,65.1A25.1,25.1,0,1,1,59.5,40,25.052,25.052,0,0,1,84.6,65.1Z" fill="#00a3df"/>
        <path id="Path_1085" data-name="Path 1085" d="M84.4,65.1A24.9,24.9,0,1,1,59.5,40.2,24.839,24.839,0,0,1,84.4,65.1Z" fill="#00a4e0"/>
        <path id="Path_1086" data-name="Path 1086" d="M84.3,65.1A24.7,24.7,0,1,1,59.6,40.4,24.689,24.689,0,0,1,84.3,65.1Z" fill="#00a5e0"/>
        <path id="Path_1087" data-name="Path 1087" d="M84.1,65.1A24.55,24.55,0,1,1,59.6,40.5,24.561,24.561,0,0,1,84.1,65.1Z" fill="#00a5e1"/>
        <path id="Path_1088" data-name="Path 1088" d="M83.9,65.1A24.4,24.4,0,1,1,59.5,40.7,24.369,24.369,0,0,1,83.9,65.1Z" fill="#00a6e1"/>
        <path id="Path_1089" data-name="Path 1089" d="M83.7,65.1A24.2,24.2,0,1,1,59.5,40.9,24.156,24.156,0,0,1,83.7,65.1Z" fill="#00a6e1"/>
        <path id="Path_1090" data-name="Path 1090" d="M83.5,65.1a24,24,0,1,1-24-24A23.942,23.942,0,0,1,83.5,65.1Z" fill="#00a7e2"/>
        <path id="Path_1091" data-name="Path 1091" d="M83.3,65.1A23.8,23.8,0,1,1,59.5,41.3,23.793,23.793,0,0,1,83.3,65.1Z" fill="#00a8e2"/>
        <path id="Path_1092" data-name="Path 1092" d="M83.1,65.1A23.6,23.6,0,1,1,59.5,41.5,23.579,23.579,0,0,1,83.1,65.1Z" fill="#00a8e3"/>
        <path id="Path_1093" data-name="Path 1093" d="M83,65.1A23.45,23.45,0,1,1,59.6,41.7,23.366,23.366,0,0,1,83,65.1Z" fill="#00a9e3"/>
        <path id="Path_1094" data-name="Path 1094" d="M82.8,65.1A23.3,23.3,0,1,1,59.5,41.8,23.323,23.323,0,0,1,82.8,65.1Z" fill="#00aae4"/>
        <path id="Path_1095" data-name="Path 1095" d="M82.6,65.1A23.1,23.1,0,1,1,59.5,42,23.11,23.11,0,0,1,82.6,65.1Z" fill="#00aae4"/>
        <path id="Path_1096" data-name="Path 1096" d="M82.4,65.1A22.9,22.9,0,1,1,59.5,42.2,22.833,22.833,0,0,1,82.4,65.1Z" fill="#00abe4"/>
        <path id="Path_1097" data-name="Path 1097" d="M82.2,65.1A22.7,22.7,0,1,1,59.5,42.4,22.747,22.747,0,0,1,82.2,65.1Z" fill="#00abe5"/>
        <path id="Path_1098" data-name="Path 1098" d="M82,65.1A22.5,22.5,0,1,1,59.5,42.6,22.406,22.406,0,0,1,82,65.1Z" fill="#00ace5"/>
        <path id="Path_1099" data-name="Path 1099" d="M81.9,65.1A22.35,22.35,0,1,1,59.6,42.8,22.32,22.32,0,0,1,81.9,65.1Z" fill="#00ade6"/>
        <path id="Path_1100" data-name="Path 1100" d="M81.7,65.1A22.2,22.2,0,1,1,59.5,42.9,22.214,22.214,0,0,1,81.7,65.1Z" fill="#00ade6"/>
        <path id="Path_1101" data-name="Path 1101" d="M81.5,65.1a22,22,0,1,1-22-22A22,22,0,0,1,81.5,65.1Z" fill="#00aee7"/>
        <path id="Path_1102" data-name="Path 1102" d="M81.3,65.1A21.8,21.8,0,1,1,59.5,43.3,21.851,21.851,0,0,1,81.3,65.1Z" fill="#00afe7"/>
        <path id="Path_1103" data-name="Path 1103" d="M81.1,65.1A21.6,21.6,0,1,1,59.5,43.5,21.638,21.638,0,0,1,81.1,65.1Z" fill="#00afe8"/>
        <path id="Path_1104" data-name="Path 1104" d="M80.9,65.1A21.4,21.4,0,1,1,59.5,43.7,21.424,21.424,0,0,1,80.9,65.1Z" fill="#00b0e8"/>
        <path id="Path_1105" data-name="Path 1105" d="M80.8,65.1A21.25,21.25,0,1,1,59.6,43.9,21.211,21.211,0,0,1,80.8,65.1Z" fill="#00b1e8"/>
        <path id="Path_1106" data-name="Path 1106" d="M80.6,65.1A21.1,21.1,0,1,1,59.5,44,21.1,21.1,0,0,1,80.6,65.1Z" fill="#00b1e9"/>
        <path id="Path_1107" data-name="Path 1107" d="M80.4,65.1A20.9,20.9,0,1,1,59.5,44.2,20.955,20.955,0,0,1,80.4,65.1Z" fill="#00b2e9"/>
        <path id="Path_1108" data-name="Path 1108" d="M80.2,65.1A20.7,20.7,0,1,1,59.5,44.4,20.741,20.741,0,0,1,80.2,65.1Z" fill="#00b2ea"/>
        <path id="Path_1109" data-name="Path 1109" d="M80,65.1A20.5,20.5,0,1,1,59.5,44.6,20.528,20.528,0,0,1,80,65.1Z" fill="#00b3ea"/>
        <path id="Path_1110" data-name="Path 1110" d="M79.8,65.1A20.3,20.3,0,1,1,59.5,44.8,20.315,20.315,0,0,1,79.8,65.1Z" fill="#00b4eb"/>
        <path id="Path_1111" data-name="Path 1111" d="M79.7,65.1A20.1,20.1,0,1,1,59.6,45,20.1,20.1,0,0,1,79.7,65.1Z" fill="#00b4eb"/>
        <path id="Path_1112" data-name="Path 1112" d="M79.5,65.1a19.95,19.95,0,1,1-19.9-20A19.973,19.973,0,0,1,79.5,65.1Z" fill="#00b5ec"/>
        <path id="Path_1113" data-name="Path 1113" d="M79.3,65.1A19.8,19.8,0,1,1,59.5,45.3,19.845,19.845,0,0,1,79.3,65.1Z" fill="#00b6ec"/>
        <path id="Path_1114" data-name="Path 1114" d="M79.1,65.1A19.6,19.6,0,1,1,59.5,45.5,19.632,19.632,0,0,1,79.1,65.1Z" fill="#00b6ec"/>
        <path id="Path_1115" data-name="Path 1115" d="M78.9,65.1A19.4,19.4,0,1,1,59.5,45.7,19.418,19.418,0,0,1,78.9,65.1Z" fill="#00b7ed"/>
        <path id="Path_1116" data-name="Path 1116" d="M78.7,65.1A19.2,19.2,0,1,1,59.5,45.9,19.2,19.2,0,0,1,78.7,65.1Z" fill="#00b8ed"/>
        <path id="Path_1117" data-name="Path 1117" d="M78.6,65.1a19,19,0,1,1-19-19A18.992,18.992,0,0,1,78.6,65.1Z" fill="#00b8ee"/>
        <path id="Path_1118" data-name="Path 1118" d="M78.4,65.1A18.85,18.85,0,1,1,59.6,46.2,18.864,18.864,0,0,1,78.4,65.1Z" fill="#00b9ee"/>
        <path id="Path_1119" data-name="Path 1119" d="M78.2,65.1A18.7,18.7,0,1,1,59.5,46.4,18.736,18.736,0,0,1,78.2,65.1Z" fill="#00baef"/>
        <path id="Path_1120" data-name="Path 1120" d="M78,65.1A18.5,18.5,0,1,1,59.5,46.6,18.522,18.522,0,0,1,78,65.1Z" fill="#00baef"/>
      </g>
      <path id="Path_1121" data-name="Path 1121" d="M82.7,65.1A23.1,23.1,0,1,1,59.5,42,23.11,23.11,0,0,1,82.7,65.1Z"/>
      <path id="Path_1122" data-name="Path 1122" d="M54.3,43.2A10.2,10.2,0,1,1,44.1,33,10.243,10.243,0,0,1,54.3,43.2Z" fill="#fff"/>
    </g>
    <g id="Group_346" data-name="Group 346">
      <path id="Path_1123" data-name="Path 1123" d="M161.9,71.9a50.343,50.343,0,0,1-14.7,2.5c-8,0-13.7-2-17.7-5.7A18.694,18.694,0,0,1,123.8,55c0-12.5,9.9-20.4,24.2-20.4a31.994,31.994,0,0,1,12.3,2.1l-2,7.2c-2.5-1.1-5.5-1.9-10.6-1.9-8.1,0-14.2,4.3-14.2,12.2,0,7.6,5.5,12.8,14,12.8a14.451,14.451,0,0,0,5.2-.7V58.5H146V51.4h15.9Z" fill="#fff"/>
      <path id="Path_1124" data-name="Path 1124" d="M169.3,32.6h7.4V74h-7.4Z" fill="#fff"/>
      <path id="Path_1125" data-name="Path 1125" d="M198.6,69.3c-4.6,0-7.9-3.8-7.9-9.4,0-4.9,2.5-9.5,8.1-9.5,5.5,0,7.9,4.8,7.9,9.4-.1,6.1-3.6,9.5-8.1,9.5Zm-.1,5.3c8.1,0,15.8-5.1,15.8-15.1,0-8.3-6.1-14.4-15.3-14.4-9.6,0-16,6.1-16,15s6.9,14.5,15.5,14.5Z" fill="#fff"/>
      <path id="Path_1126" data-name="Path 1126" d="M228.1,58.3a11.077,11.077,0,0,1,.2-1.9,7.433,7.433,0,0,1,7.3-5.7c5.3,0,8,4.1,8,9,0,5.7-3.2,9.1-8.2,9.1a7.641,7.641,0,0,1-7.3-5.4,8.752,8.752,0,0,1-.2-1.6V58.3h.2ZM220.7,66c0,3.1-.1,6.2-.2,8h6.3l.3-4.5h.1c2.3,3.8,6,5.2,10,5.2,6.9,0,14.1-5,14.1-15.2.1-8.7-5.5-14.4-13-14.4-4.7,0-8.2,2-10,4.8h-.1V32.6h-7.4V66Z" fill="#fff"/>
      <path id="Path_1127" data-name="Path 1127" d="M273.7,63.7a4.4,4.4,0,0,1-.2,1.6,6.607,6.607,0,0,1-6.3,4.1c-2.5,0-4.4-1.3-4.4-4,0-4.1,5-5.3,10.9-5.2Zm7.2-6.4c0-6.2-2.8-12.2-12.4-12.2a21.111,21.111,0,0,0-11,2.7l1.5,4.8a16.807,16.807,0,0,1,8.3-2.3c5.6,0,6.2,3.4,6.2,4.9v.4c-11.7-.1-18.1,3.7-18.1,10.8,0,4.1,3.2,8.4,9.5,8.4a11.774,11.774,0,0,0,9.1-3.9h.2l.5,3.2h6.7a42.536,42.536,0,0,1-.5-6.9V57.3Z" fill="#fff"/>
      <path id="Path_1128" data-name="Path 1128" d="M289,32.6h7.4V74H289Z" fill="#fff"/>
      <path id="Path_1129" data-name="Path 1129" d="M305.3,64.4a23.892,23.892,0,0,0,10.9,2.8c4.2,0,6.5-1.6,6.5-4.2,0-2.3-1.9-3.7-7-5.2-6.9-2-11.9-5.3-11.9-11.8,0-6.8,6.1-11.8,15.6-11.8a26.477,26.477,0,0,1,11.2,2.1l-2.2,7.3a21.627,21.627,0,0,0-9.2-2c-4,0-6,1.7-6,3.7,0,2.5,2.5,3.6,7.8,5.3,7.5,2.4,11.1,5.9,11.1,11.8,0,6.3-4.9,12.2-16.7,12.2a27.9,27.9,0,0,1-12.2-2.7Z" fill="#fff"/>
      <path id="Path_1130" data-name="Path 1130" d="M338.8,73.9V45.8h7.4V73.9Zm3.7-32.5a4.114,4.114,0,1,1,4.5-4.1,4.163,4.163,0,0,1-4.5,4.1Z" fill="#fff"/>
      <path id="Path_1131" data-name="Path 1131" d="M374.8,61a10.075,10.075,0,0,1-.3,2.5,6.844,6.844,0,0,1-6.6,4.8c-5.1,0-7.8-4.2-7.8-8.5,0-5.9,3.5-9.2,7.8-9.2a6.813,6.813,0,0,1,6.7,5,5.845,5.845,0,0,1,.2,1.9V61Zm7.5-7.4c0-3.9.1-6.1.2-7.8H376l-.2,4h-.1c-1.5-2.5-4.3-4.7-9.2-4.7-7.4,0-13.9,5.8-13.9,14.9,0,8.1,5.7,13.7,13.1,13.7a10.9,10.9,0,0,0,9.2-4.5h.1v2.5c0,6.3-4,8.8-9,8.8a18.667,18.667,0,0,1-9.2-2.5l-1.6,5.6c2.6,1.7,6.9,2.5,10.8,2.5s8.4-.7,11.7-3.5,4.5-7.4,4.5-13v-16Z" fill="#fff"/>
      <path id="Path_1132" data-name="Path 1132" d="M390.6,54.3c0-3.3-.1-6.1-.2-8.5h6.5l.4,4.5h.2a11,11,0,0,1,9.7-5.2c5,0,10.9,3,10.9,12.7V73.9h-7.4V58.7c0-4.4-1.8-7.6-6.1-7.6a6.658,6.658,0,0,0-6.2,4.4,7.315,7.315,0,0,0-.3,2.2V74h-7.4V54.3Z" fill="#fff"/>
    </g>
    <g id="Group_350" data-name="Group 350">
      <g id="Group_347" data-name="Group 347">
        <path id="Path_1133" data-name="Path 1133" d="M197.6,84.4h0l-.1-.1a5.438,5.438,0,0,1-1.8,0h-.1v.1c.1,1.6.1,3.2.1,4.8v3.2c0,1.6-.1,3.3-.1,4.8v.1h.1a5.438,5.438,0,0,1,1.8,0h.1v-.1c-.1-1.6-.2-3.2-.2-4.8V89.2C197.4,87.6,197.5,86,197.6,84.4Z" fill="#fff"/>
        <path id="Path_1134" data-name="Path 1134" d="M210.9,84.3h0c-.3,0-.5.1-.7.1a1.268,1.268,0,0,1-.6-.1h-.1v.1c.1,2.8.1,6.4.1,9.6-2.1-2.1-5.6-6-8.5-9.1l-.8-.9h-.4v.1c.1.8.1,2.7.1,5a75.475,75.475,0,0,1-.4,8.1v.1h.1a1.952,1.952,0,0,1,.7-.1,1.268,1.268,0,0,1,.6.1h.1v-.1c-.1-.7-.2-4.6-.2-6.3V87.3l.6.7c3,3.2,6.1,6.4,8.7,9.5h.5v-.1c0-.8-.1-5-.1-6.9,0-1.3.2-5,.3-6.2Z" fill="#fff"/>
        <path id="Path_1135" data-name="Path 1135" d="M222.9,84.3h0c-1.9,0-3.5.1-4.9.1s-3,0-4.8-.1h-.1v.1a1.85,1.85,0,0,1,0,1.2v.1h.1c.9-.1,2.5-.2,3.9-.2,0,1.3.1,2.5.1,3.8v3.2c0,1.6-.1,3.3-.1,4.8v.1h.1a5.438,5.438,0,0,1,1.8,0h.1v-.1c-.1-1.6-.1-3.2-.1-4.8V89.3c0-1.3,0-2.5.1-3.8,1.4,0,3,.1,3.9.2h.1v-.1a1.268,1.268,0,0,1-.1-.6,1.483,1.483,0,0,1-.1-.7C223,84.4,223,84.3,222.9,84.3Z" fill="#fff"/>
        <path id="Path_1136" data-name="Path 1136" d="M232.2,96.1h0a37.042,37.042,0,0,1-5,.2V91a36.276,36.276,0,0,1,4.4.2h.1v-.1a4.331,4.331,0,0,0-.1-.5,1.268,1.268,0,0,1,.1-.6v-.1h-.1a43.258,43.258,0,0,1-4.4.2V85.4a36.816,36.816,0,0,1,3.9.2c.3,0,.6.1,1,.1h.1v-.1a4.331,4.331,0,0,0-.1-.5c0-.1,0-.4.1-.5v-.1h-.1c-1.3.1-2.3.1-3.3.1s-2.1,0-3.3-.1h-.1v.1c.1,1.5.2,3.2.2,4.8v3.2c0,1.6-.1,3.3-.2,4.9v.1h.1c1.3-.1,2.4-.1,3.4-.1s2.1,0,3.4.1h.1v-.1c0-.2-.1-.3-.1-.5a3.086,3.086,0,0,1-.1-.9C232.3,96.2,232.3,96.1,232.2,96.1Z" fill="#fff"/>
        <path id="Path_1137" data-name="Path 1137" d="M240.2,92.3c-.4-.5-.8-1-1-1.3,1.5-.2,3.8-1.3,3.8-3.7,0-2-1.4-3.1-4-3.1h-2.2a16.233,16.233,0,0,1-2.1-.1h-.1v.1c.1,1.6.2,3.2.2,4.8v3.2c0,1.6-.1,3.3-.2,4.8v.1h.1a5.438,5.438,0,0,1,1.8,0h.1V97c-.1-1.6-.2-3.2-.2-4.8V90.9h.6a50.193,50.193,0,0,1,4.8,6.2h.1a6.1,6.1,0,0,1,2.2,0,.1.1,0,0,0,.1-.1v-.1C243.4,96.4,241.6,94,240.2,92.3Zm-3.7-3.1c0-1.3.1-2.6.1-4,.4,0,.9-.1,1.7-.1s2.8.2,2.8,2.4c0,2-1.8,2.8-3.5,2.8a4.869,4.869,0,0,1-1.2-.1l.1-1Z" fill="#fff"/>
        <path id="Path_1138" data-name="Path 1138" d="M257.9,84.3h0c-.3,0-.5.1-.7.1a1.268,1.268,0,0,1-.6-.1h-.1v.1c.1,2.8.1,6.4.1,9.6-2.1-2.1-5.6-6-8.5-9.1l-.8-.9h-.5v.1c.1.8.1,2.7.1,5a75.475,75.475,0,0,1-.4,8.1v.1h.1a1.952,1.952,0,0,1,.7-.1,1.268,1.268,0,0,1,.6.1h.1v-.1c-.1-.7-.2-4.6-.2-6.3V87.3l.6.7c3,3.2,6.1,6.4,8.7,9.5h.5v-.1c0-.8-.1-5-.1-6.9.1-1.3.3-5,.4-6.2Z" fill="#fff"/>
        <path id="Path_1139" data-name="Path 1139" d="M267,96.1h0a37.042,37.042,0,0,1-5,.2V91a36.277,36.277,0,0,1,4.4.2h.1v-.1a4.331,4.331,0,0,0-.1-.5,1.268,1.268,0,0,1,.1-.6v-.1h-.1a43.258,43.258,0,0,1-4.4.2V85.4a36.817,36.817,0,0,1,3.9.2c.3,0,.6.1,1,.1h.1v-.1a4.331,4.331,0,0,0-.1-.5c0-.1,0-.4.1-.5v-.1h-.1c-1.3.1-2.3.1-3.3.1s-2.1,0-3.3-.1h-.1v.1c.1,1.5.2,3.2.2,4.8v3.2c0,1.6-.1,3.3-.2,4.9v.1h.1c1.3-.1,2.4-.1,3.4-.1s2.1,0,3.4.1h.1v-.1c0-.2-.1-.3-.1-.5a3.085,3.085,0,0,1-.1-.9Z" fill="#fff"/>
        <path id="Path_1140" data-name="Path 1140" d="M279.3,84.3h0c-1.9,0-3.5.1-4.9.1s-3,0-4.8-.1h-.1v.1a1.85,1.85,0,0,1,0,1.2v.1h.1c.9-.1,2.5-.2,3.9-.2,0,1.3.1,2.5.1,3.8v3.2c0,1.6-.1,3.3-.1,4.8v.1h.1a5.438,5.438,0,0,1,1.8,0h.1v-.1c-.1-1.6-.2-3.2-.2-4.8V89.3c0-1.3,0-2.5.1-3.8,1.4,0,3,.1,3.9.2h.1v-.1a1.268,1.268,0,0,1-.1-.6v-.7C279.4,84.4,279.4,84.3,279.3,84.3Z" fill="#fff"/>
        <path id="Path_1141" data-name="Path 1141" d="M295.1,85.1a9.9,9.9,0,0,0-4.8-1.1c-4.6,0-7.4,2.6-7.4,6.8,0,4.3,2.7,6.8,7.3,6.8a17.075,17.075,0,0,0,4.8-.9l.1-.1V95.1c0-2.4.1-3.5.1-3.8v-.1h-.1a1.719,1.719,0,0,1-.8.1,2.769,2.769,0,0,1-.9-.1h-.1v.6c0,.7.1,1.4.1,2.1v2.2a6.839,6.839,0,0,1-2.9.6c-3.4,0-5.5-2.2-5.5-5.8,0-3.8,2-5.9,5.4-5.9a5.062,5.062,0,0,1,4,1.8h.3c.1,0,.1,0,.1-.1a4.673,4.673,0,0,1,.4-1.4c-.1-.1-.1-.1-.1-.2Z" fill="#fff"/>
        <path id="Path_1142" data-name="Path 1142" d="M303.3,92.3c-.4-.5-.8-1-1-1.3,1.5-.2,3.8-1.3,3.8-3.7,0-2-1.4-3.1-4-3.1h-2.2a16.233,16.233,0,0,1-2.1-.1h-.1v.1c.1,1.6.2,3.2.2,4.8v3.2c0,1.6-.1,3.3-.2,4.8v.1h.1a5.438,5.438,0,0,1,1.8,0h.1V97c-.1-1.6-.2-3.2-.2-4.8V90.9h.6a50.191,50.191,0,0,1,4.8,6.2s.1.1.1,0a4.1,4.1,0,0,1,1.1-.1,4.485,4.485,0,0,1,1.1.1h0a.1.1,0,0,0,.1-.1v-.1C306.5,96.4,304.7,94,303.3,92.3Zm-3.7-3.1c0-1.3.1-2.6.1-4,.4,0,.9-.1,1.7-.1s2.8.2,2.8,2.4c0,2-1.8,2.8-3.5,2.8a4.869,4.869,0,0,1-1.2-.1v-1h.1Z" fill="#fff"/>
        <path id="Path_1143" data-name="Path 1143" d="M314.9,84c-4.3,0-7.1,2.7-7.1,6.8s2.8,6.8,7.1,6.8,7.1-2.7,7.1-6.8S319.2,84,314.9,84Zm0,12.8c-3.2,0-5.1-2.2-5.1-5.9,0-3.8,1.8-5.9,5.1-5.9,3.2,0,5.1,2.2,5.1,5.9S318.1,96.8,314.9,96.8Z" fill="#fff"/>
        <path id="Path_1144" data-name="Path 1144" d="M335.2,84.3a1.087,1.087,0,0,1-.5.1,1.7,1.7,0,0,1-.7-.1h-.1v.1c.1.7.1,2.5.1,6.1,0,2.4,0,6.1-4,6.1-4.1,0-4.1-3.2-4.1-5.8,0-2.8.1-5.3.2-6.4v-.1H326a1.949,1.949,0,0,1-.8.1,3.4,3.4,0,0,1-1-.1h-.1v.6c0,1.1.1,2.6.1,4.3v2.9c0,3.7,1.7,5.5,5.5,5.5,3.4,0,5.4-2.1,5.4-5.5,0-2.6.2-6,.3-7.8-.1.1-.1,0-.2,0Z" fill="#fff"/>
        <path id="Path_1145" data-name="Path 1145" d="M342.1,84.3h-2.3a12.134,12.134,0,0,1-1.8-.1h-.1v.1c.1,1.6.1,3.2.1,4.8v3.2c0,1.6-.1,3.3-.1,4.8v.1h.1a5.438,5.438,0,0,1,1.8,0h.1v-.1c-.1-1.6-.2-3.2-.2-4.8v-.9h1.4c2.5,0,5.1-1.1,5.1-4C346.3,84.3,343.1,84.3,342.1,84.3Zm2.2,3.4c0,2.6-2.1,3-3.4,3a4.483,4.483,0,0,1-1.2-.1V85.2h1.6C343.2,85.2,344.3,85.6,344.3,87.7Z" fill="#fff"/>
      </g>
      <g id="Group_349" data-name="Group 349">
        <path id="Path_1146" data-name="Path 1146" d="M157.8,96.7h.9a.1.1,0,0,0,.1-.1l3.8-6.3,2.1,7.2.1.1h4a.1.1,0,0,0,.1-.1l-4.2-13.4-.1-.1h-1.5a.1.1,0,0,0-.1.1l-5.2,8-5.2-8-.1-.1H151a.1.1,0,0,0-.1.1l-4.2,13.4a.1.1,0,0,0,.1.1h4a.1.1,0,0,0,.1-.1l2.1-7.2,3.8,6.3.1.1Z" fill="#fff"/>
        <g id="Group_348" data-name="Group 348">
          <path id="Path_1147" data-name="Path 1147" d="M146.8,90h0l-.6-.1H135.3a1.1,1.1,0,1,0,0,2.2h6.8c-.8,2.1-3.6,3.7-6.8,3.7-3.9,0-7.1-2.3-7.1-5,0-2.8,3.2-5,7.1-5a8.824,8.824,0,0,1,5.3,1.7h4.7a.1.1,0,0,0,.1-.1v-.1h0c-2-2.1-5.8-3.6-10.1-3.6-6.4,0-11.6,3.1-11.6,7s5.2,7,11.6,7,11.6-3.1,11.6-7A2.253,2.253,0,0,0,146.8,90Z" fill="#fff"/>
        </g>
        <path id="Path_1148" data-name="Path 1148" d="M180.3,83.9c-6.4,0-11.6,3.1-11.6,7s5.2,7,11.6,7,11.6-3.1,11.6-7S186.7,83.9,180.3,83.9Zm0,12c-3.9,0-7.1-2.3-7.1-5,0-2.8,3.2-5,7.1-5s7.1,2.3,7.1,5S184.2,95.9,180.3,95.9Z" fill="#fff"/>
      </g>
    </g>
    <g id="Group_351" data-name="Group 351">
      <path id="Path_1149" data-name="Path 1149" d="M449.5,62.5l-3.8,11.3h-7.9l13.9-39.1h9.7l14.3,39.1h-8.3l-4-11.3H449.5Zm12.6-5.6L458.5,47c-.9-2.4-1.5-4.7-2.2-6.8h-.1c-.6,2.1-1.2,4.5-2,6.8l-3.4,9.9Z" fill="#fff"/>
    </g>
    <g id="Group_352" data-name="Group 352">
      <path id="Path_1150" data-name="Path 1150" d="M489.4,37.6v8.2h7.3v5.6h-7.3V63.1c0,3.5.8,5.5,4,5.5a16.306,16.306,0,0,0,3-.3l.2,5.6a18.021,18.021,0,0,1-5.6.8,8.88,8.88,0,0,1-6.6-2.5c-1.6-1.7-2.3-4.5-2.3-8.1V51.5h-4.3V45.9h4.3V39.4Z" fill="#fff"/>
    </g>
    <g id="Group_353" data-name="Group 353">
      <path id="Path_1151" data-name="Path 1151" d="M502.9,32.6h7.5V74.1h-7.5Z" fill="#fff"/>
    </g>
    <g id="Group_354" data-name="Group 354">
      <path id="Path_1152" data-name="Path 1152" d="M536,74.1l-.5-3.2h-.2c-1.8,2.3-5,3.9-9.1,3.9-6.3,0-9.5-4.3-9.5-8.4,0-7,6.4-10.8,18.2-10.7v-.4c0-1.4-.6-4.9-6.2-4.9a17.2,17.2,0,0,0-8.4,2.3L518.8,48a22.428,22.428,0,0,1,11-2.7c9.7,0,12.5,5.9,12.5,12.2v9.8a42.536,42.536,0,0,0,.5,6.9H536Zm-.9-13.7c-5.9-.1-10.9,1.1-10.9,5.2,0,2.6,1.9,3.9,4.4,3.9a6.714,6.714,0,0,0,6.3-4.1,4.4,4.4,0,0,0,.2-1.6Z" fill="#fff"/>
    </g>
    <g id="Group_355" data-name="Group 355">
      <path id="Path_1153" data-name="Path 1153" d="M549.5,66.7a17.9,17.9,0,0,0,7.8,2.1c3.3,0,4.7-1.3,4.7-3,0-1.9-1.3-2.7-4.9-3.8-5.8-1.6-8.3-4.6-8.3-8,0-4.8,4.2-8.7,11.1-8.7a17.838,17.838,0,0,1,7.9,1.7l-1.4,5a14.157,14.157,0,0,0-6.5-1.7c-2.6,0-4.1,1.1-4.1,2.9s1.5,2.7,5.3,3.8c5.4,1.6,7.8,4.1,7.9,8.3,0,4.8-3.9,8.6-11.8,8.6a20.222,20.222,0,0,1-9.2-2Z" fill="#fff"/>
    </g>
    <g id="Group_356" data-name="Group 356">
      <path id="Path_1154" data-name="Path 1154" d="M570,44.8V39.2h-2.1v-.8H573v.8h-2.1v5.6Z" fill="#fff"/>
      <path id="Path_1155" data-name="Path 1155" d="M573.8,44.8V38.4h1.3l1.5,4.5a4.649,4.649,0,0,0,.3.9,6.214,6.214,0,0,0,.3-1l1.5-4.5h1.1v6.4H579V39.3l-1.9,5.4h-.8l-1.9-5.5v5.5h-.6Z" fill="#fff"/>
    </g>
  </g>
</svg>
